<svg xmlns="http://www.w3.org/2000/svg" width="512" height="512" viewBox="0 0 438.529 438.529"><g fill="#9C9C9C"><path d="M417.69 75.654c-1.712-1.71-3.902-2.568-6.564-2.568h-88.224L302.917 25.41c-2.854-7.044-7.994-13.04-15.413-17.99C280.078 2.474 272.556 0 264.944 0h-91.362c-7.61 0-15.13 2.473-22.554 7.42-7.424 4.95-12.563 10.945-15.42 17.99l-19.984 47.676h-88.22c-2.667 0-4.853.86-6.567 2.568-1.71 1.713-2.568 3.903-2.568 6.567v18.275c0 2.664.854 4.854 2.567 6.564 1.714 1.71 3.904 2.567 6.567 2.567H54.81v271.8c0 15.803 4.473 29.266 13.418 40.398 8.947 11.14 19.7 16.703 32.264 16.703h237.542c12.566 0 23.32-5.756 32.265-17.268 8.944-11.52 13.414-25.174 13.414-40.97V109.626h27.41c2.663 0 4.854-.856 6.564-2.568 1.708-1.71 2.57-3.9 2.57-6.565V82.22c.002-2.663-.86-4.853-2.57-6.566zM169.3 39.678c1.332-1.712 2.95-2.762 4.854-3.14h90.504c1.903.38 3.525 1.43 4.854 3.14l13.71 33.404H155.31l13.99-33.404zM347.174 380.29c0 4.187-.664 8.043-2 11.562-1.333 3.518-2.716 6.088-4.14 7.706-1.43 1.622-2.423 2.427-2.998 2.427H100.493c-.57 0-1.565-.805-2.996-2.427-1.43-1.618-2.81-4.188-4.143-7.706-1.33-3.52-1.997-7.38-1.997-11.56V109.626h255.815V380.29z"/><path d="M137.04 347.172h18.27c2.668 0 4.86-.855 6.568-2.567 1.71-1.718 2.568-3.9 2.568-6.57V173.58c0-2.662-.86-4.852-2.568-6.566-1.714-1.71-3.9-2.565-6.567-2.565h-18.27c-2.667 0-4.854.854-6.567 2.564-1.71 1.714-2.568 3.904-2.568 6.567v164.455c0 2.67.854 4.853 2.568 6.57 1.713 1.71 3.9 2.567 6.567 2.567zM210.13 347.172h18.27c2.666 0 4.856-.855 6.564-2.567 1.718-1.718 2.57-3.9 2.57-6.57V173.58c0-2.662-.853-4.852-2.57-6.566-1.708-1.71-3.898-2.565-6.564-2.565h-18.27c-2.665 0-4.855.854-6.568 2.564-1.714 1.714-2.568 3.904-2.568 6.567v164.455c0 2.67.854 4.853 2.568 6.57 1.712 1.71 3.903 2.567 6.567 2.567zM283.22 347.172h18.268c2.67 0 4.86-.855 6.57-2.567 1.71-1.718 2.562-3.9 2.562-6.57V173.58c0-2.662-.852-4.852-2.562-6.566-1.71-1.71-3.9-2.565-6.57-2.565H283.22c-2.67 0-4.853.854-6.57 2.564-1.712 1.714-2.567 3.904-2.567 6.567v164.455c0 2.67.855 4.853 2.566 6.57 1.717 1.71 3.9 2.567 6.57 2.567z"/></g></svg>